PathFileType	4	(X/Y/Z)	C:/Users/opensim2020/Desktop/walking_exp_matlab/subject06_walking14_straight_02.trc																																																																																																																																					
DataRate	CameraRate	NumFrames	NumMarkers	Units	OrigDataRate	OrigDataStartFrame	OrigNumFrames																																																																																																																																	
100	100	6	45	mm	100	1580	192																																																																																																																																	
Frame#	Time	LFHD			RFHD			LBHD			RBHD			C7			T10			CLAV			STRN			RBAK			LSHO			LUPA			LELB			LFRM			LWRA			LWRB			LFIN			RSHO			RUPA			RELB			RFRM			RWRA			RWRB			RFIN			LASI			RASI			LPSI			RPSI			LTHI			LKNE			LTIB			LANK			LHEE			LTOE			RTHI			RKNE			RTIB			RANK			RHEE			RTOE			*39			*40			*41			*42			*43			*44		
		X1	Y1	Z1	X2	Y2	Z2	X3	Y3	Z3	X4	Y4	Z4	X5	Y5	Z5	X6	Y6	Z6	X7	Y7	Z7	X8	Y8	Z8	X9	Y9	Z9	X10	Y10	Z10	X11	Y11	Z11	X12	Y12	Z12	X13	Y13	Z13	X14	Y14	Z14	X15	Y15	Z15	X16	Y16	Z16	X17	Y17	Z17	X18	Y18	Z18	X19	Y19	Z19	X20	Y20	Z20	X21	Y21	Z21	X22	Y22	Z22	X23	Y23	Z23	X24	Y24	Z24	X25	Y25	Z25	X26	Y26	Z26	X27	Y27	Z27	X28	Y28	Z28	X29	Y29	Z29	X30	Y30	Z30	X31	Y31	Z31	X32	Y32	Z32	X33	Y33	Z33	X34	Y34	Z34	X35	Y35	Z35	X36	Y36	Z36	X37	Y37	Z37	X38	Y38	Z38	X39	Y39	Z39	X40	Y40	Z40	X41	Y41	Z41	X42	Y42	Z42	X43	Y43	Z43	X44	Y44	Z44	X45	Y45	Z45
																																																																																																																																								
1	0	-921.92145	1668.23669	927.31293	-918.37073	1661.2124	1059.21375	-1053.76294	1608.33508	932.08203	-1047.52148	1606.45068	1061.48328	-1044.00537	1454.53052	991.5274	-1083.03113	1127.46716	1005.24243	-933.11475	1378.26233	991.92236	-896.06482	1201.33569	987.63446	-1115.83057	1287.05334	1076.07141	-988.77045	1406.73376	829.85663	-989.71631	1202.84106	761.44849	-991.2467	1089.92725	750.98151	-949.06116	945.16455	728.76025	-867.58344	843.74469	765.28619	-930.3161	827.3681	734.92542	-874.24152	756.20673	729.24335	-972.41254	1410.63452	1153.77112	-1004.34094	1210.76245	1243.07678	-992.86884	1090.62695	1259.255	-978.90778	972.11383	1282.77319	-918.65961	830.21039	1263.83606	-976.82422	834.52631	1299.40271	-942.64276	756.89728	1306.74048	-911.87555	957.90076	898.08881	-903.74847	974.75378	1117.23535	-1069.34131	987.86206	930.91779	-1057.19824	1001.34125	1098.56812	-949.74597	642.83148	843.98456	-919.27496	482.69861	858.8924	-1098.54126	317.24982	863.90112	-1224.22241	199.83154	898.06	-1261.50342	215.81625	945.35992	-1153.34558	74.35143	898.58356	-943.9682	640.60529	1178.64294	-929.4588	516.83759	1149.7384	-969.35638	251.15723	1141.99097	-975.98755	66.266	1089.34375	-1011.87616	41.79272	1041.5564	-822.04175	34.60213	1094.78625	-1022.66211	1704.36951	988.18677	NaN	NaN	NaN	NaN	NaN	NaN	NaN	NaN	NaN	NaN	NaN	NaN	NaN	NaN	NaN
2	0.01	-912.9425	1668.49646	928.32452	-909.03198	1661.5658	1060.19641	-1044.90991	1608.77234	933.65759	-1038.40173	1606.96045	1063.27869	-1035.14905	1454.98303	993.27496	-1074.71912	1128.12537	1007.20715	-924.33783	1378.60107	993.14441	-887.76453	1201.64771	988.8927	-1106.93372	1288.10498	1078.45166	-980.75574	1407.05957	831.33612	-983.33606	1202.98999	763.41663	-986.2254	1090.05261	753.48602	-948.1579	944.21533	731.19965	-869.62531	840.22919	768.27374	-932.88953	825.78754	737.73083	-879.06635	753.02118	732.00446	-962.57404	1411.16138	1155.09778	-991.73395	1211.15515	1245.12744	-978.18079	1091.27966	1261.77234	-961.19531	973.12683	1285.27563	-897.46228	833.08539	1265.82556	-955.39746	835.75806	1301.92102	-918.66864	759.34039	1309.23328	-902.24622	959.25958	899.44489	-896.39899	975.10974	1118.60217	-1060.83545	988.46625	932.23926	-1048.94214	1001.43823	1099.93994	-936.22107	644.35474	844.80212	-902.45667	485.16476	859.88763	-1079.34595	317.36008	864.90228	-1203.30066	198.13464	899.12726	-1241.06445	213.09692	946.66779	-1129.24561	74.99047	898.25244	-937.67627	640.44836	1179.12585	-924.72729	516.40814	1150.15625	-967.49664	251.10098	1141.72607	-975.71307	66.38577	1088.99036	-1011.85388	41.9492	1041.32275	-821.88324	34.42771	1094.6615	-1013.50854	1704.82654	989.53979	NaN	NaN	NaN	NaN	NaN	NaN	NaN	NaN	NaN	NaN	NaN	NaN	NaN	NaN	NaN
3	0.02	-903.96149	1668.69067	929.34613	-899.65405	1661.8905	1061.13574	-1036.03162	1609.16577	935.12695	-1028.88269	1607.43542	1064.49731	-1026.34119	1455.41113	995.00195	-1066.36133	1128.69238	1009.05072	-915.55151	1378.9408	994.25098	-879.35242	1201.93738	990.12811	-1098.02991	1289.11853	1080.64648	-972.75378	1407.46143	832.76324	-977.07538	1203.22314	765.41296	-981.46051	1090.33459	756.10486	-946.95471	943.4729	734.40308	-871.87317	837.21924	771.16663	-935.44055	824.65961	740.435	-883.8313	750.34656	734.69818	-952.63959	1411.58057	1156.2467	-979.27277	1211.73828	1247.0542	-963.60632	1092.11963	1264.09961	-943.5744	974.45313	1287.66174	-876.25507	836.30914	1267.66797	-934.12634	837.33649	1304.30554	-894.83008	762.27692	1311.59094	-893.4021	960.39465	901.07043	-887.57819	975.48383	1120.67798	-1052.25891	989.08643	933.53473	-1040.72693	1001.48828	1101.27795	-922.44769	646.12238	846.10101	-885.82001	487.66684	861.04828	-1060.0083	316.94626	866.02692	-1181.98486	195.66074	900.33789	-1220.00098	209.1721	948.07422	-1103.83948	75.33912	898.05981	-931.7514	640.28772	1179.41638	-920.09406	515.9939	1150.69543	-965.72369	251.05147	1141.76453	-975.57617	66.53379	1088.60059	-1011.42291	41.87623	1040.87341	-821.72565	34.22919	1094.58167	-1004.31995	1705.2168	990.86609	NaN	NaN	NaN	NaN	NaN	NaN	NaN	NaN	NaN	NaN	NaN	NaN	NaN	NaN	NaN
4	0.03	-895.06348	1668.93896	930.28119	-890.27283	1662.21436	1062.08838	-1027.20947	1609.55542	936.65778	-1019.75562	1607.98096	1066.24561	-1017.59045	1455.9342	996.68378	-1058.04089	1129.24402	1010.81927	-906.69556	1379.28943	995.37	-870.9715	1202.25146	991.35809	-1089.16223	1290.06934	1082.73621	-964.75452	1407.93933	834.17719	-970.97821	1203.58923	767.39056	-976.79333	1090.81519	758.61475	-945.93439	943.17871	737.12885	-874.07971	834.63037	774.10693	-938.09735	824.11414	742.94354	-888.53656	748.16858	737.54877	-943.02258	1412.17114	1157.37671	-966.95013	1212.43445	1248.90466	-948.97205	1093.12073	1266.28113	-926.02899	976.07513	1289.8822	-855.23834	839.93158	1269.48145	-912.34882	838.95673	1306.04309	-871.16681	765.61218	1313.77478	-884.60443	961.52313	902.7403	-879.45807	975.77472	1122.4281	-1043.65381	989.70026	934.73016	-1032.51086	1001.4975	1102.54504	-909.14514	647.89362	847.021	-869.54175	490.24362	862.36829	-1040.59778	316.13553	867.34497	-1159.69653	192.13559	901.64459	-1198.15039	204.12903	949.5592	-1077.71704	74.84769	898.18945	-926.05896	640.13654	1179.76501	-915.48712	515.55817	1151.39429	-963.89325	251.01605	1142.0116	-975.12054	66.55684	1088.34766	-1011.72864	42.25335	1041.04895	-821.47528	33.98493	1094.55566	-995.12451	1705.60901	992.15784	NaN	NaN	NaN	NaN	NaN	NaN	NaN	NaN	NaN	NaN	NaN	NaN	NaN	NaN	NaN
5	0.04	-886.07684	1669.02173	931.23334	-880.82635	1662.51599	1062.96802	-1018.35944	1609.93384	938.14166	-1010.14044	1608.4585	1067.41785	-1008.69214	1456.29456	998.19983	-1049.68311	1129.69836	1012.52765	-898.15076	1379.70947	996.38141	-862.61096	1202.52283	992.56293	-1080.2572	1290.99255	1084.73267	-956.72601	1408.4364	835.52429	-965.16168	1204.03491	769.23071	-972.29858	1091.40112	761.04285	-945.10901	943.21246	739.47473	-876.31482	832.4917	777.01526	-940.23962	823.77368	745.55719	-892.95544	746.33936	740.39478	-933.5249	1412.79297	1158.45776	-954.3114	1213.22668	1250.56726	-934.68225	1094.25928	1268.33374	-908.68164	977.92352	1291.94397	-834.32367	843.90222	1271.271	-891.11432	841.37738	1308.09338	-847.78961	769.336	1315.80725	-875.90753	962.54913	904.34497	-871.23108	975.90063	1124.02795	-1035.01416	990.23163	935.84711	-1024.21033	1001.51013	1103.73401	-895.86932	649.79285	848.01605	-853.55518	492.85907	863.77844	-1020.85913	314.92279	868.73132	-1136.61255	187.61731	902.94519	-1175.51831	198.11543	951.02814	-1050.46741	73.72081	898.33844	-920.11053	639.8822	1180.09155	-910.74622	515.11816	1152.10669	-961.81818	251.00703	1142.29956	-974.73456	66.61939	1088.26465	-1011.79083	42.6129	1041.18103	-821.22504	33.6937	1094.60803	-985.88763	1706.00293	993.39148	NaN	NaN	NaN	NaN	NaN	NaN	NaN	NaN	NaN	NaN	NaN	NaN	NaN	NaN	NaN
6	0.05	-877.07544	1669.18213	932.0813	-871.42133	1662.76868	1063.8479	-1009.50403	1610.28149	939.61877	-1000.74316	1608.92395	1068.86731	-999.82892	1456.65759	999.69873	-1041.36475	1130.12891	1014.14825	-889.38861	1380.00378	997.40247	-854.17017	1202.76282	993.7785	-1071.3302	1291.8689	1086.73035	-948.6076	1408.89209	836.81	-959.46545	1204.51208	770.95532	-968.05286	1092.02417	763.3454	-943.99017	943.19617	742.24982	-878.422	830.78418	779.90582	-942.24316	823.79053	747.92609	-897.33722	744.91797	743.30133	-924.11401	1413.47168	1159.55359	-942.37878	1214.11487	1252.20007	-920.6109	1095.51807	1270.33398	-891.49811	979.94403	1293.90894	-813.56256	848.13654	1273.07544	-870.22327	843.96832	1309.78821	-824.77448	773.32056	1317.61816	-867.14264	963.54504	905.89893	-863.03778	975.95117	1125.57874	-1026.32715	990.71851	936.91754	-1015.8866	1001.53339	1104.92297	-883.57776	651.88751	848.96747	-837.86096	495.51184	865.24115	-1000.89435	313.30777	870.18561	-1113.01855	182.5742	904.38898	-1151.88403	191.31537	952.84863	-1022.94775	71.7407	898.84753	-914.11462	639.58221	1180.37988	-905.96869	514.6275	1152.89221	-959.45636	250.97607	1142.6499	-974.40051	66.7336	1088.24719	-1011.69287	42.8064	1041.25366	-821.11877	33.49978	1094.82739	-976.68054	1706.35583	994.63367	NaN	NaN	NaN	NaN	NaN	NaN	NaN	NaN	NaN	NaN	NaN	NaN	NaN	NaN	NaN
